<?xml version="1.0" standalone="no"?>
<!DOCTYPE svg PUBLIC "-//W3C//DTD SVG 1.1//EN" "http://www.w3.org/Graphics/SVG/1.1/DTD/svg11.dtd">
<svg xmlns="http://www.w3.org/2000/svg" width="500" height="500" viewBox="0 0 500 500"><path fill-rule="evenodd" d="M214.59 81.627c-1.391 3.625-1.8 22.278-.673 30.713 2.126 15.91 7.978 28.209 18.377 38.625 8.015 8.028 16.264 12.279 25.192 12.984l6.987.551.656 4c.36 2.2.452 4.338.204 4.75s-16.119.75-35.27.75c-27.03 0-35.055.286-35.878 1.277-1.207 1.454-6.514 51.381-5.616 52.834.8 1.296 17.805 9.766 35.931 17.898C282.583 272.066 298.351 279 299.52 279c1.629 0 32.848-32.375 33.313-34.547.183-.855-3.275-12.669-7.685-26.253-4.409-13.585-9.509-29.425-11.333-35.2l-3.315-10.5-16.246.124c-8.935.068-17.598.395-19.25.725-2.964.593-3.003.545-2.96-3.624.055-5.301 2.307-11.827 4.661-13.505.987-.703 4.623-3.114 8.08-5.356 12.265-7.955 16.934-17.312 18.211-36.496.444-6.672 1.33-13.109 1.97-14.305 2.586-4.831.031-4.201-5.897 1.452-11.689 11.15-21.44 28.376-25.171 44.471-3.461 14.93-5.903 20.509-5.892 13.464.003-2.172.441-6.61.973-9.86 1.286-7.853-.23-18.167-3.736-25.418-3.789-7.836-13.052-16.799-31.473-30.456-8.538-6.33-15.831-12.005-16.206-12.612-.979-1.584-2.252-1.361-2.974.523M171 260.682c-1.375.268-2.882.854-3.35 1.302-.924.887 6.652 26.164 8.892 29.668.756 1.183 12.981 8.332 27.167 15.887 14.185 7.555 33.059 17.72 41.941 22.588l16.151 8.851 5.349-2.325c2.943-1.278 11.75-4.725 19.573-7.659l14.223-5.334 9.592-12.762c5.276-7.019 10.238-13.297 11.027-13.952 2.632-2.185 1.483-3.79-3.815-5.328-7.221-2.095-55.356-13.369-83.25-19.498-12.65-2.779-29.3-6.485-37-8.235-13.989-3.179-21.789-4.122-26.5-3.203m.504 71.312c-.227.367 1.087 2.896 2.921 5.618 2.958 4.392 10.6 17.779 22.909 40.126 2.192 3.981 5.859 9.156 8.147 11.5 6.4 6.555 44.639 29.762 49.04 29.762 2.295 0 25.842-9.216 26.714-10.456.404-.574.741-12.164.75-25.755l.015-24.712-3.75-.978c-11.319-2.952-18.565-4.671-44.377-10.53-15.605-3.542-35.929-8.421-45.165-10.841s-16.977-4.101-17.204-3.734"/></svg>